<svg xmlns="http://www.w3.org/2000/svg" width="256" height="256"><path fill="#1976D2" fill-opacity=".192" fill-rule="evenodd" d="M0 128.004v128.004l128.25-.254 128.25-.254.254-127.75L257.008 0H0v128.004m.485.496c0 70.4.119 99.053.265 63.672.146-35.38.146-92.98 0-128C.604 29.153.485 58.1.485 128.5"/><path fill="#1976D2" fill-opacity=".194" fill-rule="evenodd" d="M0 128.004v128.004l128.25-.254 128.25-.254.254-127.75L257.008 0H0v128.004m.485.496c0 70.4.119 99.053.265 63.672.146-35.38.146-92.98 0-128C.604 29.153.485 58.1.485 128.5M90 98.816c0 10.349.49 21.469 1.089 24.71 2.215 11.982 9.651 21.744 20.693 27.166 5.164 2.536 6.735 2.808 16.218 2.808s11.054-.272 16.218-2.808c11.042-5.422 18.478-15.184 20.693-27.166.599-3.241 1.089-14.361 1.089-24.71V80H90v18.816m8.468-14.545c-.313 1.249-.434 5.411-.269 9.25.28 6.494.467 7.002 2.688 7.316 1.313.186 2.768-.264 3.235-1 1.311-2.068 1.056-15.259-.322-16.637-1.951-1.951-4.713-1.396-5.332 1.071m11.049.121c-3.282 3.282-3.498 10.091-.444 13.973 4.588 5.833 13.382 1.642 13.382-6.378 0-8.346-7.679-12.853-12.938-7.595m15.934-1.124c-.298.775-.408 4.969-.246 9.32.287 7.694.364 7.912 2.795 7.912 2.481 0 2.5-.067 2.5-9 0-8.577-.106-9.015-2.254-9.32-1.263-.179-2.493.299-2.795 1.088m11.274.484c-6.047 6.681-3.059 17.248 4.877 17.248 6.945 0 10.291-11.198 4.943-16.545-2.904-2.905-7.528-3.236-9.82-.703M152.2 83.2c-1.378 1.378-1.633 14.569-.322 16.637.467.736 1.922 1.186 3.235 1 2.221-.314 2.408-.822 2.688-7.316.165-3.839.044-8.001-.269-9.25-.619-2.467-3.381-3.022-5.332-1.071m-38.651 6.645c-.723 2.279.319 5.355 1.556 4.59 1.178-.728 1.154-5.157-.033-5.891-.51-.315-1.196.27-1.523 1.301m27.146-1.206c-1.015 1.014-.849 5.148.233 5.817 1.317.814 2.366-3.108 1.328-4.964-.477-.851-1.179-1.235-1.561-.853m-43.434 17.89C90.743 111.095 93.783 125 101.299 125c1.02 0 3.17-1.315 4.778-2.923 2.292-2.293 2.923-3.819 2.923-7.077s-.631-4.784-2.923-7.077c-3.277-3.276-5.602-3.644-8.816-1.394m14.774.405c-1.569 2.932-1.29 14.341.406 16.625 1.153 1.552 1.804 1.72 3.25.836 1.447-.884 1.868-2.656 2.103-8.845.295-7.77-.596-10.55-3.381-10.55-.739 0-1.808.87-2.378 1.934m11.271.479c-2.402 2.066-2.806 3.159-2.806 7.587s.404 5.521 2.806 7.587c1.543 1.327 3.655 2.413 4.694 2.413 1.039 0 3.151-1.086 4.694-2.413 2.402-2.066 2.806-3.159 2.806-7.587s-.404-5.521-2.806-7.587C131.151 106.086 129.039 105 128 105c-1.039 0-3.151 1.086-4.694 2.413m15.773-1.008c-.73.88-1.057 4.301-.873 9.145.235 6.189.656 7.961 2.103 8.845 2.919 1.784 4.691-1.672 4.691-9.152 0-8.924-2.613-12.824-5.921-8.838m10.844 1.518C147.631 110.216 147 111.742 147 115s.631 4.784 2.923 7.077c3.277 3.276 5.602 3.644 8.816 1.394 4.7-3.293 4.7-13.649 0-16.942-3.214-2.25-5.539-1.882-8.816 1.394m-115.352 5.648c-2.172 2.173-1.977 6.141.363 7.394 3.054 1.634 4.892 1.229 6.658-1.465 1.517-2.316 1.517-2.684 0-5-1.868-2.85-4.721-3.228-7.021-.929m65.815-.134c-.788 2.053.322 4.862 1.607 4.067.554-.342 1.007-1.469 1.007-2.504 0-2.464-1.845-3.567-2.614-1.563M127 115c0 1.65.45 3 1 3s1-1.35 1-3-.45-3-1-3-1 1.35-1 3m26.386-1.563c-.788 2.053.322 4.862 1.607 4.067.554-.342 1.007-1.469 1.007-2.504 0-2.464-1.845-3.567-2.614-1.563m61.022 1.063c-1.517 2.316-1.517 2.684 0 5 2.597 3.963 8.592 2.593 8.592-1.964 0-5.294-5.775-7.335-8.592-3.036m-105.335 17.135c-4.901 6.23-.895 16.873 6.088 16.178 6.745-.672 9.847-10.982 4.892-16.257-3.302-3.515-8.181-3.48-10.98.079m16.378-1.367c-.298.775-.408 4.969-.246 9.32.287 7.694.364 7.912 2.795 7.912 2.481 0 2.5-.067 2.5-9 0-8.577-.106-9.015-2.254-9.32-1.263-.179-2.493.299-2.795 1.088m10.496 1.288c-4.952 5.272-1.853 15.585 4.885 16.256 4.704.469 8.168-3.404 8.168-9.132 0-8.803-7.586-12.943-13.053-7.124m-22.398 5.289c-.723 2.279.319 5.355 1.556 4.59 1.178-.728 1.154-5.157-.033-5.891-.51-.315-1.196.27-1.523 1.301m27.146-1.206c-1.015 1.014-.849 5.148.233 5.817 1.317.814 2.366-3.108 1.328-4.964-.477-.851-1.179-1.235-1.561-.853m-15.735 79.192c-4.289 3.473-.399 9.395 5.038 7.67 3.162-1.004 3.768-5.462 1.042-7.67-1.244-1.007-2.612-1.831-3.04-1.831-.428 0-1.796.824-3.04 1.831"/><path fill="#1976D2" fill-opacity=".109" fill-rule="evenodd" d="M0 111.068v111.068l4.75-.606c6.078-.776 8.75-1.225 8.75-1.47 0-.107 1.423-.381 3.162-.609 1.739-.228 5.2-1.107 7.691-1.953 2.491-.845 4.893-1.433 5.338-1.305.445.127 1.827-.332 3.07-1.022 1.244-.689 2.819-1.152 3.5-1.028.682.124 2.853-.479 4.826-1.34 1.973-.861 4.673-1.874 6-2.253 2.28-.649 7.141-2.709 11.273-4.774l19.5-9.75c9.702-4.85 18.704-9.062 20.004-9.359l2.365-.54-2.26 2.406c-1.243 1.323-2.532 2.24-2.864 2.038-1.317-.801-1.039 8.656.332 11.308 5.266 10.182 19.998 7.309 21.29-4.15.504-4.471.324-4.913-3.598-8.835-3.831-3.831-4.119-4.5-3.987-9.262l.142-5.132.716 4c.394 2.2.78 3.234.858 2.298.206-2.474 12.185-9.335 13.281-7.607.457.72.837 8.415.846 17.099l.015 15.79-4 3.805c-3.442 3.275-4 4.398-4 8.056 0 5.336 2.844 9.523 7.517 11.065 7.462 2.462 14.483-2.902 14.483-11.065 0-3.658-.558-4.781-4-8.056l-4-3.805v-16.915c0-22.584-.108-22.187 7.123-26.069 3.26-1.75 6.366-2.912 6.902-2.58.536.331.975.163.975-.374 0-.536-.54-1.155-1.199-1.375-.751-.25-.563-.644.5-1.052 1.549-.595 1.699.584 1.699 13.356v14.009l-4.133 3.932c-3.954 3.761-4.11 4.138-3.599 8.677.414 3.667 1.243 5.379 3.649 7.529 8.777 7.842 22.81-2.178 17.791-12.704-.896-1.879-2.772-4.165-4.168-5.08L154 185.77v-32.628l5.25-5.05 5.25-5.049 10.317-.021 10.317-.022 3.237 3.432c5.471 5.801 11.602 5.949 16.781.405 2.256-2.415 2.848-3.983 2.848-7.543 0-3.778-.542-5.036-3.4-7.894-2.625-2.625-4.232-3.4-7.05-3.4-4.643 0-8.736 2.11-10.504 5.415-1.303 2.434-1.797 2.575-8.465 2.422l-7.081-.163L177 135c3.025-.371 5.05-.761 4.5-.868-.55-.107.591-1.193 2.536-2.413 1.945-1.221 5.05-3.682 6.899-5.469 1.849-1.787 3.857-3.257 4.463-3.265.606-.009.468-.417-.308-.908-.931-.59.833-1.008 5.203-1.235 6.423-.332 6.687-.249 9.185 2.886 5.958 7.478 16.899 5.422 19.628-3.689 2.174-7.253-3.455-14.494-11.267-14.494-3.567 0-3.669-.078-1.538-1.195 2.665-1.396 10.999-9.558 13.856-13.57 1.089-1.529 2.378-2.78 2.866-2.78 1.189 0 5.977-4.842 5.977-6.045 0-.525.9-.955 2-.955s2-.444 2-.986 2.71-2.353 6.022-4.025c4.397-2.22 6.151-2.696 6.501-1.764.264.701.595 34.125.735 74.275.199 56.875.309 48.536.499-37.75L257 0H0v111.068m.483.432c0 61.05.12 85.878.267 55.173.147-30.705.147-80.655 0-111S.483 50.45.483 111.5M90 100.395c0 18.63.259 22.215 2.005 27.75 5.07 16.073 19.1 26.341 35.995 26.341 16.895 0 30.925-10.268 35.995-26.341 1.746-5.535 2.005-9.12 2.005-27.75V79H90v21.395m9.229-17.224c-1.84 1.84-1.635 15.247.258 16.818.818.679 2.186.967 3.039.639 2.24-.859 1.732-17.961-.547-18.396-.836-.16-2.074.263-2.75.939m10.36 1.906c-7.167 8.517 2.216 21.209 9.956 13.468C124.777 93.314 121.419 82 114.634 82c-1.515 0-3.448 1.179-5.045 3.077m16.49-1.672c-.732.882-1.057 4.327-.873 9.25.286 7.623.365 7.845 2.794 7.845 2.429 0 2.508-.222 2.794-7.845C131.068 85.338 130.193 82 128 82c-.415 0-1.28.632-1.921 1.405m10.376 1.05C134.561 86.348 134 87.959 134 91.5c0 9.36 9.528 13.181 13.537 5.428 2.355-4.554 1.852-8.693-1.46-12.005-3.568-3.567-6.386-3.705-9.622-.468m16.212-1.788c-.367.366-.667 4.43-.667 9.031 0 6.544.329 8.491 1.513 8.945 3.116 1.196 4.487-1.573 4.487-9.065 0-6.94-.973-9.578-3.533-9.578-.624 0-1.434.3-1.8.667m-39.259 6.711c-.817 2.131-.131 4.882 1.342 5.372.816.272 1.25-.633 1.25-2.608 0-3.337-1.683-5.132-2.592-2.764m27.275-.728c-.375.376-.683 1.996-.683 3.6 0 3.468 2.322 3.309 2.835-.194.354-2.418-.999-4.559-2.152-3.406M99.32 106.077C91.155 109.098 92.899 124 101.418 124c4.245 0 6.688-2.747 7.298-8.209.748-6.697-4.074-11.682-9.396-9.714m13.759.328c-.732.882-1.057 4.324-.873 9.239.253 6.743.556 7.884 2.174 8.194 2.759.527 3.588-1.545 3.605-9.017.011-4.754-.438-7.131-1.556-8.25-1.911-1.911-1.903-1.91-3.35-.166m11.707.148c-6.014 3.264-5.55 15.464.648 17.02 4.467 1.121 7.565-.326 9.23-4.311 2.082-4.982.466-10.626-3.653-12.756-3.437-1.777-2.855-1.782-6.225.047m14.82-.016c-1.158 1.158-1.602 3.47-1.591 8.284.017 7.472.846 9.544 3.605 9.016 1.626-.31 1.919-1.453 2.168-8.444.216-6.07-.069-8.381-1.144-9.274-1.126-.934-1.776-.844-3.038.418m12.665-.442c-5.325 1.97-6.907 11.335-2.701 15.983 2.617 2.891 7.803 2.534 10.357-.713 5.329-6.773-.297-17.992-7.656-15.27M34.05 113.44c-1.583 1.907-.958 6.603 1.045 7.856 2.572 1.609 6.791.007 7.508-2.852 1.202-4.786-5.486-8.699-8.553-5.004M100 115c0 2.089.425 3.025 1.25 2.75.688-.229 1.25-1.467 1.25-2.75s-.562-2.521-1.25-2.75c-.825-.275-1.25.661-1.25 2.75m26.394-1.583c-.828 2.157.323 4.844 1.857 4.333.687-.229 1.249-1.467 1.249-2.75 0-2.741-2.227-3.876-3.106-1.583m26.968.083c-.716 1.864.226 4.5 1.607 4.5.567 0 1.031-1.35 1.031-3 0-3.14-1.649-4.078-2.638-1.5m61.174.46c-2.468 2.727-1.335 6.801 2.134 7.672 3.434.862 5.75-.66 6.152-4.043.625-5.256-4.702-7.589-8.286-3.629m-103.307 15.709c-1.936.779-4.229 5.854-4.229 9.358 0 3.695 4.687 8.973 7.969 8.973 3.816 0 7.031-4.343 7.031-9.5 0-6.935-5.097-11.114-10.771-8.831m14.48-.045c-.39.39-.709 4.179-.709 8.42 0 5.634.404 8.046 1.5 8.956 1.198.995 1.809.988 3.038-.031 1.201-.997 1.475-3.051 1.25-9.373-.259-7.276-.495-8.126-2.329-8.388-1.123-.161-2.36.027-2.75.416m10.746 1.831c-5.081 5.08-1.909 16.545 4.576 16.545 3.282 0 7.969-5.278 7.969-8.973 0-8.678-7.134-12.984-12.545-7.572m-23.071 4.987c-.74 1.929-.123 4.616 1.116 4.861.55.108 1.141-1.266 1.313-3.053.317-3.286-1.378-4.548-2.429-1.808m26.795 1.701c.176 1.846.771 3.244 1.321 3.107 1.486-.371 1.212-5.513-.321-6.024-.959-.319-1.233.482-1 2.917m52.771-1.583c-2.239 2.698-.042 6.879 3.811 7.253 2.607.253 3.437-.154 4.335-2.124 1.598-3.506-.31-6.689-4.009-6.689-1.563 0-3.425.702-4.137 1.56m-33.238 12.224c-2.591 2.632-4.712 5.087-4.712 5.458 0 .37 2.062-1.532 4.582-4.226 2.684-2.869 5.688-5.068 7.25-5.308l2.668-.408-2.538-.15c-1.818-.108-3.873 1.206-7.25 4.634m-21.899 11.899c.721.289 1.584.253 1.916-.079.332-.332-.258-.568-1.312-.525-1.165.048-1.402.285-.604.604M101.232 183c0 1.925.206 2.713.457 1.75.252-.963.252-2.537 0-3.5-.251-.963-.457-.175-.457 1.75m1.518 10.08c-2.176 1.267-2.273 5.255-.179 7.349 2.942 2.941 7.429.97 7.429-3.264 0-4.592-3.243-6.419-7.25-4.085m43.917.985c-2.969 4.239 1.23 9.214 5.959 7.059 2.627-1.196 3.307-5.791 1.174-7.924-1.862-1.862-5.534-1.417-7.133.865m-22.096 20.506c-1.865 1.865-2.054 5.546-.371 7.229.66.66 2.37 1.2 3.8 1.2 1.43 0 3.14-.54 3.8-1.2 2.828-2.828.249-8.8-3.8-8.8-1.021 0-2.564.707-3.429 1.571"/><path fill="#1976D2" fill-opacity=".588" fill-rule="evenodd" d="M117.324 28.381c-9.257 3.024-16.745 9.929-21.113 19.469-2.052 4.483-2.649 7.614-3.014 15.818l-.455 10.23-4.121.301-4.121.301-.289 8.75-.289 8.75h-6.501c-6.284 0-6.628-.134-10.306-4-3.226-3.391-4.426-4-7.883-4-10.128 0-14.681 11.845-7.224 18.793 4.818 4.488 13.464 3.062 16.451-2.714C70.006 97.087 70.248 97 77.026 97H84v17H48.431l-1.695-2.87C41.356 102.022 27 106.421 27 117.177c0 5.378 5.11 10.825 10.15 10.819 4.065-.004 9.428-3.092 10.335-5.949.646-2.034 1.161-2.084 18.761-1.819l18.098.272 1.356 6c.746 3.3 1.621 7.012 1.945 8.25.578 2.211.433 2.25-8.503 2.25-8.934 0-9.116-.048-10.531-2.785-3.251-6.287-11.843-7.445-16.997-2.291-2.575 2.576-3.114 3.904-3.114 7.677 0 3.89.482 4.993 3.266 7.481C54.259 149.31 56.01 150 59.171 150c3.528 0 4.7-.59 7.944-4l3.805-4h20.776l5.652 5.652 5.652 5.652v31.776l-4 3.805c-3.372 3.208-4 4.436-4 7.825 0 4.925 2.742 8.72 7.415 10.262 4.48 1.478 8.04.464 11.088-3.158 4.511-5.36 2.914-13.574-3.253-16.732-2.175-1.114-2.25-1.631-2.25-15.451 0-7.863.229-14.527.51-14.807.28-.281 2.868.305 5.75 1.3 2.882.996 6.477 1.825 7.99 1.843L125 160v47.662l-2.455 1.314c-2.513 1.345-5.545 6.525-5.545 9.475 0 2.535 2.738 7.252 5.217 8.988 2.86 2.004 8.706 2.004 11.566 0 2.479-1.736 5.217-6.453 5.217-8.988 0-2.95-3.032-8.13-5.545-9.475L131 207.662V160l2.75-.033c1.512-.018 5.108-.847 7.99-1.843 2.882-.995 5.47-1.581 5.75-1.3.281.28.51 6.908.51 14.728v14.218l-2.75 1.79c-4.134 2.69-5.183 4.523-5.218 9.113-.059 7.677 6.469 12.637 13.553 10.299 4.673-1.542 7.415-5.337 7.415-10.262 0-3.389-.628-4.617-4-7.825l-4-3.805v-31.776l5.652-5.652 5.652-5.652h20.776l3.805 4c3.181 3.343 4.451 4 7.738 4 10.214 0 14.937-11.985 7.266-18.44-5.446-4.583-13.421-3.3-16.5 2.655-1.41 2.727-1.624 2.785-10.248 2.785-4.844 0-9.092-.284-9.439-.631-.347-.348-.106-1.585.536-2.75.643-1.166 1.675-4.594 2.293-7.619l1.125-5.5 17.944-.272 17.943-.271 1.709 2.892c3.597 6.09 12.485 6.629 17.188 1.04 2.981-3.542 3.427-9.206.999-12.672-1.865-2.663-6.509-5.217-9.485-5.217-2.966 0-7.547 2.872-9.045 5.669-1.235 2.308-1.425 2.331-19.118 2.331h-17.872l.291-8.25.29-8.25 6.701-.295c6.609-.29 6.724-.251 8.317 2.829 3.01 5.821 11.636 7.266 16.474 2.759C211.449 95.845 206.896 84 196.768 84c-3.457 0-4.657.609-7.883 4-3.678 3.866-4.022 4-10.306 4h-6.501l-.289-8.75-.289-8.75-4.121-.301-4.121-.301-.455-10.23c-.536-12.036-3.06-18.737-9.822-26.073-6.212-6.739-13.399-9.898-23.373-10.273-4.962-.187-9.728.224-12.284 1.059m3.627 4.933c-6.095 1.708-11.19 4.979-15.38 9.874C100.739 48.833 99 54.667 99 65.233v8.877l4.75-.305 4.75-.305.527-10c.549-10.415 1.222-12.534 5.145-16.202 7.374-6.895 20.282-6.895 27.656 0 3.923 3.668 4.596 5.787 5.145 16.202l.527 10 4.75.305 4.75.305v-8.877c0-10.88-1.791-16.578-7.111-22.621-7.142-8.114-19.266-12.01-28.938-9.298m.145 15.894c-5.134 2.759-6.596 6.22-6.596 15.612v8.68h27l.318-6.5c.624-12.752-2.993-18.136-12.582-18.729-3.447-.213-6.695.161-8.14.937m-30.91 54.042c.312 24.116.329 24.281 3.054 29.825 3.737 7.605 10.899 14.605 18.76 18.338 5.846 2.776 7.456 3.087 16 3.087 8.581 0 10.129-.302 16-3.12 7.861-3.773 15.084-10.828 18.778-18.342 2.703-5.499 2.724-5.711 3.036-29.788l.315-24.25H89.871l.315 24.25M99 91.371c0 8.666.556 10.12 3.448 9.01 1.355-.519 1.58-1.991 1.34-8.753-.268-7.566-.444-8.15-2.538-8.448-2.182-.309-2.25-.062-2.25 8.191m10.627-6.121c-2.44 3.87-2.765 6.483-1.256 10.096 2.603 6.229 7.583 7.07 11.603 1.96C124.378 91.708 121.016 83 114.45 83c-2.443 0-3.804.635-4.823 2.25m15.98-.668c-1.272 3.316-.645 14.141.893 15.418 2.8 2.324 4.5-.525 4.5-7.541 0-7.512-.618-9.459-3-9.459-.982 0-2.059.712-2.393 1.582m10.508.999c-2.672 3.396-2.709 8.394-.089 11.725 4.145 5.27 9.737 3.972 11.964-2.777.988-2.993.886-4.12-.66-7.285-1.551-3.173-2.384-3.79-5.465-4.048-2.954-.246-4.032.201-5.75 2.385m16.552-1.914c-.367.366-.667 4.143-.667 8.393 0 6.14.326 7.851 1.59 8.336 2.848 1.093 3.41-.384 3.41-8.955 0-7.519-.2-8.441-1.833-8.441-1.009 0-2.134.3-2.5.667m-39 5c-.367.366-.667 1.941-.667 3.5 0 3.236 2.512 3.945 3.455.974 1.016-3.2-.934-6.328-2.788-4.474m25.895 1.137c-.8 2.523.284 5.196 2.108 5.196 1.035 0 1.366-.918 1.143-3.173-.358-3.631-2.348-4.869-3.251-2.023m-83.339.753C52.476 93.181 54.22 100 58.637 100c5.294 0 7.434-6.436 3.14-9.443C60.555 89.701 59.305 89 59 89c-.305 0-1.555.701-2.777 1.557m138 0c-4.294 3.007-2.154 9.443 3.14 9.443 2.249 0 4.637-2.84 4.637-5.515 0-2.013-3.165-5.485-5-5.485-.305 0-1.555.701-2.777 1.557m-97.198 17.418c-3.84 3.84-3.84 10.21 0 14.05 2.613 2.613 6.145 2.501 8.686-.275 2.929-3.2 3.607-6.256 2.281-10.273-1.828-5.541-7.21-7.259-10.967-3.502m15.425-.705c-.299.779-.41 4.75-.247 8.824.266 6.64.504 7.406 2.297 7.406 1.843 0 2-.667 2-8.486 0-7.293-.247-8.534-1.753-8.824-.964-.186-1.998.3-2.297 1.08m10.623 1.365C118.68 114.219 121.817 124 128 124c3.825 0 7-4.082 7-9 0-7.964-7.515-11.975-11.927-6.365m16.377-1.365c-.299.779-.41 4.75-.247 8.824.266 6.64.504 7.406 2.297 7.406 1.843 0 2-.667 2-8.486 0-7.293-.247-8.534-1.753-8.824-.964-.186-1.998.3-2.297 1.08m11.375-.232c-.921.538-2.191 2.542-2.822 4.454-2.745 8.317 5.384 16.121 10.972 10.533 6.957-6.957.004-19.744-8.15-14.987m-115.553 5.243c-4.344 1.96-4.064 8.087.449 9.803 3.594 1.367 7.279-1.157 7.279-4.985 0-4.252-3.771-6.604-7.728-4.818m64.888-.041c-1.555 1.555-1.468 4.26.182 5.629 1.758 1.459 2.658.45 2.658-2.977 0-3.213-1.178-4.314-2.84-2.652m26.261.104c-.959 2.501-.022 6.156 1.579 6.156 1.041 0 1.5-1.046 1.5-3.417 0-3.545-2.064-5.382-3.079-2.739m27.237-.669c-.362.362-.658 1.858-.658 3.325s.296 2.963.658 3.325c.998.997 3.342-1.335 3.342-3.325 0-1.99-2.344-4.322-3.342-3.325m62.279.663c-3.537 1.753-3.898 6.986-.631 9.127 3.2 2.097 7.386.609 8.278-2.943 1.111-4.428-3.563-8.209-7.647-6.184m-104.638 18.165c-1.18.827-2.666 3.079-3.302 5.006-.973 2.948-.866 4.096.673 7.247 1.551 3.173 2.384 3.79 5.465 4.048 7.433.62 10.676-9.147 4.942-14.881-3.309-3.309-4.715-3.565-7.778-1.42m14.901-.303c-1.242 1.242-1.677 12.394-.593 15.218.334.87 1.411 1.582 2.393 1.582 2.377 0 3-1.947 3-9.382 0-5.506-1.083-8.618-3-8.618-.33 0-1.14.54-1.8 1.2m10.723 1.723c-3.595 3.596-3.916 8.545-.808 12.496 1.718 2.184 2.796 2.631 5.75 2.385 3.081-.258 3.914-.875 5.465-4.048 1.539-3.151 1.646-4.299.673-7.247-1.162-3.522-4.284-6.509-6.802-6.509-.745 0-2.67 1.315-4.278 2.923m-81.352 3.648c-3.174 3.175-.468 9.429 4.08 9.429 2.141 0 4.349-3.065 4.349-6.036 0-4.468-5.243-6.578-8.429-3.393m137.995-.243c-3.772 2.759-1.292 9.672 3.47 9.672.91 0 2.399-.823 3.309-1.829 4.561-5.039-1.315-11.838-6.779-7.843m-80.379 2.845c.348 3.532 2.215 4.827 3.212 2.228.904-2.353-.242-5.401-2.03-5.401-1.079 0-1.408.883-1.182 3.173m26.358-1.314c-.754 2.376.361 5.337 1.828 4.856 1.812-.593 2.047-6.715.258-6.715-.823 0-1.762.837-2.086 1.859m-36.265 55.228c-1.221.454-2.512 1.989-2.869 3.41-1.543 6.148 7.944 9.174 10.033 3.2 1.638-4.688-2.377-8.393-7.164-6.61m43.939.472c-4.044 2.833-2.182 9.441 2.661 9.441 2.965 0 6.12-2.648 6.12-5.138 0-4.113-5.326-6.723-8.781-4.303m-23.73 22.818c-1.269 1.936-1.338 2.861-.372 4.981 2.133 4.681 7.633 4.681 9.766 0 1.669-3.663-.784-7.358-4.883-7.358-2.007 0-3.453.762-4.511 2.377"/></svg>